<svg xmlns="http://www.w3.org/2000/svg" viewBox="0 0 64 64" width="64" height="64">
  <defs>
    <linearGradient id="g" x1="0" y1="0" x2="1" y2="1">
      <stop offset="0" stop-color="#cdd6a6"/>
      <stop offset="0.55" stop-color="#9fb277"/>
      <stop offset="1" stop-color="#7f9a5f"/>
    </linearGradient>
  </defs>
  <rect x="4" y="4" width="56" height="56" rx="16" fill="url(#g)"/>
  <path d="M32 12c-6 0-10 3.8-11 8.2C16.8 21.4 14 25 14 29.3c0 3 1.6 5.6 4 7.1-.6 1.1-1 2.3-1 3.6 0 4.4 3.9 7.6 8.7 7.6h12.6c4.8 0 8.7-3.2 8.7-7.6 0-1.3-.4-2.5-1-3.6 2.4-1.5 4-4.1 4-7.1 0-4.3-2.8-7.9-7-9.1C50 15.8 46 12 40 12c-1.5 0-3 .4-4.3 1A10.6 10.6 0 0 0 32 12Z" fill="#31462b"/>
  <rect x="30" y="40" width="4" height="12" rx="1" fill="#5b3f2a"/>
  <path d="M32 22v20M32 30l-5-4M32 35l5-4" stroke="#ffffff" stroke-opacity="0.5" stroke-width="2" stroke-linecap="round"/>
</svg>
